HIERARCHY
ROOT Hips
{
  OFFSET 0 0 0
  CHANNELS 6 Xposition Yposition Zposition Zrotation Yrotation Xrotation
  JOINT LeftThigh
  {
    OFFSET 8.409438 0 -5.917753
    CHANNELS 3 Zrotation Yrotation Xrotation
    JOINT LeftLeg
    {
      OFFSET 0 0 -42.358652
      CHANNELS 3 Zrotation Yrotation Xrotation
      JOINT LeftFoot
      {
        OFFSET 0 0 -39.357303
        CHANNELS 3 Zrotation Yrotation Xrotation
      }
    }
  }
  JOINT RightThigh
  {
    OFFSET -8.409438 0 -5.917753
    CHANNELS 3 Zrotation Yrotation Xrotation
    JOINT RightLeg
    {
      OFFSET 0 0 -42.358652
      CHANNELS 3 Zrotation Yrotation Xrotation
      JOINT RightFoot
      {
        OFFSET 0 0 -39.357303
        CHANNELS 3 Zrotation Yrotation Xrotation
      }
    }
  }
  JOINT SpineLow
  {
    OFFSET 0 0 4.719101
    CHANNELS 3 Zrotation Yrotation Xrotation
    JOINT SpineMid
    {
      OFFSET 0 0 12.899191
      CHANNELS 3 Zrotation Yrotation Xrotation
      JOINT Chest
      {
        OFFSET 0 0 12.899191
        CHANNELS 3 Zrotation Yrotation Xrotation
        JOINT LeftShoulder
        {
          OFFSET 7.550562 1.41573 9.438202
          CHANNELS 3 Zrotation Yrotation Xrotation
          JOINT LeftArm
          {
            OFFSET 9.155056 0 4.247191
            CHANNELS 3 Zrotation Yrotation Xrotation
            JOINT LeftForearm
            {
              OFFSET 0 0 25.771955
              CHANNELS 3 Zrotation Yrotation Xrotation
              JOINT LeftHand
              {
                OFFSET 0 0 25.197169
                CHANNELS 3 Zrotation Yrotation Xrotation
              }
            }
          }
        }
        JOINT RightShoulder
        {
          OFFSET -7.550562 1.41573 9.438202
          CHANNELS 3 Zrotation Yrotation Xrotation
          JOINT RightArm
          {
            OFFSET -9.155056 0 4.247191
            CHANNELS 3 Zrotation Yrotation Xrotation
            JOINT RightForearm
            {
              OFFSET 0 0 -25.771955
              CHANNELS 3 Zrotation Yrotation Xrotation
              JOINT RightHand
              {
                OFFSET 0 0 -25.197169
                CHANNELS 3 Zrotation Yrotation Xrotation
              }
            }
          }
        }
        JOINT Neck
        {
          OFFSET 0 0 15.101124
          CHANNELS 3 Zrotation Yrotation Xrotation
          JOINT Head
          {
            OFFSET 0 0 11.325843
            CHANNELS 3 Zrotation Yrotation Xrotation
            End Site
            {
              OFFSET 0 0 14.157303
            }
          }
        }
      }
    }
  }
}
MOTION
Frames: 17
Frame Time: 0.0
0.0  101.685394  0.0  -2.61997  -17.250222  -101.114182  52.271267  -21.81388  -25.551259  -26.628399  22.036682  34.19437  4.15203  0.22077  3.59624  -3.602265  1.83433  26.100244  -7.596842  9.077134  6.352573  24.484013  20.255698  3.732165  -0.245341  -0.739637  2.567811  -0.748444  -1.993043  7.028245  -0.748444  -1.993043  7.028245  -8.837276  27.641828  -1.498808  -157.231121  75.857644  -114.244913  -33.421122  -32.148856  78.946354  24.403589  -44.704245  25.289865  3.648899  0.030491  16.470182  102.925086  20.318024  32.885594  -21.017821  37.60868  -97.420336  75.244807  7.85837  42.892362  9.405866  -1.631321  -3.251593  7.045482  -1.273937  -2.414094  
0.0  101.685394  0.0  -2.691067  -17.411315  -100.973189  52.568625  -22.048056  -26.182908  -26.279391  22.128883  34.303085  3.908411  0.148718  3.576408  -3.264949  1.380986  26.154702  -6.611955  8.909194  6.051509  24.048009  19.770101  4.004179  -0.30741  -0.786511  2.600674  -0.923978  -2.113909  7.120795  -0.923978  -2.113909  7.120795  -8.835799  28.089634  -1.4519  -157.123776  75.595769  -114.406289  -34.122098  -32.477337  79.381005  24.982962  -44.295695  25.124196  3.595188  0.114515  16.549931  102.293926  20.712683  32.960066  -20.726855  37.662356  -97.154452  75.334848  8.031923  43.003922  9.677121  -1.373379  -3.451261  7.250014  -1.08505  -2.567333  
0.0  101.685394  0.0  -2.741228  -17.553342  -100.956479  52.677203  -22.375143  -26.600617  -26.068072  22.403198  34.13655  4.034642  -0.002544  3.68817  -2.384097  0.611819  26.197722  -6.298707  8.893922  5.749212  23.398934  19.265034  4.402128  -0.357935  -0.832576  2.651204  -1.068625  -2.233339  7.2615  -1.068625  -2.233339  7.261501  -8.842294  28.553117  -1.404329  -157.565807  75.292181  -115.105691  -34.899128  -32.618769  80.046299  24.722673  -44.039701  25.774936  3.562221  0.166842  16.633791  101.727546  21.139304  33.112128  -20.438147  37.624827  -96.867863  75.36116  8.040001  43.232733  9.899091  -1.13519  -3.594896  7.417705  -0.909948  -2.678527  
0.0  101.685394  0.0  -2.848477  -17.635033  -101.030458  52.565702  -22.814329  -26.867072  -25.602356  22.524569  34.071772  4.194151  -0.142092  3.815927  -1.043374  -0.542202  26.16266  -6.809618  8.971523  5.57656  22.806573  18.88188  4.885325  -0.413949  -0.890387  2.709539  -1.230051  -2.38383  7.424226  -1.230051  -2.38383  7.424226  -8.769737  29.013572  -1.301332  -158.687693  74.925888  -116.473983  -35.744972  -32.759572  80.662899  24.33916  -43.638851  26.557719  3.563279  0.226433  16.759576  101.251156  21.574503  33.317285  -20.250531  37.624804  -96.575782  75.196985  7.959763  43.467075  10.100858  -0.916604  -3.641196  7.570342  -0.747916  -2.716568  
0.0  101.685394  0.0  -3.046488  -17.610007  -101.121842  52.341982  -23.264181  -27.00654  -25.297206  22.59889  33.807597  4.314348  -0.293443  3.913721  0.364341  -1.891679  26.067487  -7.917052  9.129072  5.479628  22.488396  18.645392  5.344986  -0.477715  -0.967219  2.765212  -1.415026  -2.585101  7.580778  -1.415026  -2.585101  7.580778  -8.606794  29.433796  -1.095294  -160.48723  74.45996  -118.464999  -36.643968  -32.769171  81.346883  24.11943  -43.047385  27.45365  3.547671  0.347915  17.022017  100.858258  22.113934  33.527128  -20.179637  37.697504  -96.262739  74.886886  7.860878  43.63242  10.276844  -0.717876  -3.555285  7.703668  -0.598425  -2.655247  
0.0  101.685394  0.0  -3.349692  -17.460828  -101.175484  52.045008  -23.670681  -27.094032  -25.047734  22.500549  33.468765  4.28247  -0.420833  3.972303  1.455071  -3.321833  25.966912  -9.261408  9.50751  5.400378  22.344608  18.355799  5.588239  -0.551036  -1.069582  2.797002  -1.62847  -2.85521  7.673666  -1.62847  -2.85521  7.673666  -8.310117  29.808298  -0.697689  -162.958322  73.840411  -121.032938  -37.571875  -32.692028  82.022353  23.923996  -42.309222  28.389254  3.481876  0.560836  17.220827  100.512942  22.479775  33.657847  -20.162097  37.764937  -95.963848  74.566402  7.795542  43.689239  10.395176  -0.513571  -3.311736  7.79382  -0.441684  -2.475899  
0.0  101.685394  0.0  -3.652608  -17.264442  -101.220094  51.806487  -23.914949  -27.061329  -24.86061  22.251698  33.074874  4.266497  -0.602308  4.083788  2.167656  -4.647495  25.886456  -10.634831  10.082473  5.260283  22.546061  18.176694  5.753967  -0.625128  -1.177816  2.812607  -1.844285  -3.141493  7.723234  -1.844285  -3.141493  7.723235  -7.911663  30.082838  -0.230176  -165.987714  73.054598  -124.107887  -38.483569  -32.505066  82.644756  23.86254  -41.477938  29.415065  3.468554  0.826924  17.444176  100.103715  22.851666  33.719354  -20.103537  37.711905  -95.715205  74.348361  7.805112  43.659709  10.487174  -0.349816  -2.929627  7.863895  -0.31276  -2.191976  
0.0  101.685394  0.0  -3.736632  -17.9295  -101.743116  52.425733  -24.390036  -26.685976  -24.761  21.971512  32.599324  4.244563  -0.840089  4.259979  3.40321  -5.673444  26.253498  -11.728872  10.585126  5.148663  22.803747  18.014524  5.835153  -0.553881  -1.263424  2.891627  -1.66385  -3.381331  7.93886  -1.66385  -3.381331  7.938859  -7.629921  30.11855  0.26515  -169.087432  71.999049  -127.319391  -39.367735  -32.231393  83.243028  23.928814  -40.623087  30.407684  2.852029  0.899155  17.467256  100.268716  23.043435  34.109136  -19.974137  37.506301  -95.563624  74.241666  7.872883  43.605843  10.52703  -0.205848  -2.50889  7.894577  -0.197683  -1.87878  
0.0  101.685394  0.0  -3.781075  -17.645794  -101.830263  52.207323  -24.302958  -26.381073  -24.732615  21.666297  32.094901  4.189868  -1.088537  4.447551  3.235183  -6.032739  26.171105  -12.172991  10.894486  5.11645  22.986064  17.975963  5.897875  -0.620323  -1.33281  2.875919  -1.852957  -3.563124  7.901737  -1.852957  -3.563124  7.901737  -7.185891  30.201689  0.763179  -172.507681  71.034109  -130.787859  -40.22988  -31.885371  83.801  24.089109  -39.78088  31.386581  2.779079  1.27661  17.715996  99.867496  23.572988  34.03001  -19.808183  37.158666  -95.523292  74.232976  7.985394  43.558664  10.50931  -0.114513  -2.078577  7.881699  -0.121678  -1.557509  
0.0  101.685394  0.0  -3.422254  -18.141524  -102.144891  52.705757  -24.101155  -25.79028  -24.818275  21.278699  31.583164  4.189608  -1.257773  4.629324  3.51087  -5.721182  26.27971  -11.950258  10.90556  5.150303  23.238354  17.925281  5.979327  -0.596543  -1.339675  2.866016  -1.788313  -3.584991  7.873635  -1.788313  -3.584991  7.873635  -6.463238  30.24636  1.281465  -175.783349  70.098933  -134.149662  -41.023989  -31.450781  84.274706  24.322015  -38.98411  32.345237  2.898217  1.608153  17.957003  99.581599  24.099117  33.977786  -19.648404  36.707922  -95.605687  74.260659  8.145829  43.501796  10.607416  -0.063051  -1.642025  7.95546  -0.075821  -1.230863  
0.0  101.685394  0.0  -3.302295  -17.995446  -101.959374  52.671706  -23.575874  -25.537479  -25.01738  20.823336  31.088561  4.181017  -1.338714  4.789612  2.799496  -5.029118  26.064675  -11.302857  10.656039  5.030332  23.568769  17.728869  6.10791  -0.615389  -1.353473  2.777505  -1.836682  -3.623003  7.633006  -1.836681  -3.623003  7.633006  -5.993985  30.09706  1.737426  -178.752382  69.236491  -137.199895  -41.668226  -30.941508  84.630024  24.560749  -38.243757  33.29039  2.812586  1.784892  18.171942  99.291763  24.72007  33.847517  -19.529459  36.201258  -95.804099  74.276502  8.331246  43.469832  10.501944  -0.118522  -1.295656  7.876246  -0.111199  -0.970044  
0.0  101.685394  0.0  -3.122617  -17.973476  -101.694478  52.698515  -22.980283  -25.351309  -25.346711  20.424775  30.615585  4.288791  -1.34281  4.909752  2.097113  -4.022108  25.972421  -10.527325  10.227849  4.653979  24.169009  17.629301  6.344887  -0.621962  -1.344021  2.659113  -1.847168  -3.599954  7.309143  -1.847168  -3.599954  7.309143  -5.393353  29.895904  2.246571  178.859627  68.46023  -139.661938  -42.095905  -30.421618  84.848824  24.745934  -37.541624  34.155208  2.79782  1.823066  18.368913  99.095722  25.323475  33.743319  -19.468521  35.655137  -96.104691  74.355876  8.468091  43.476319  10.43998  -0.210632  -0.967969  7.829665  -0.174573  -0.722627  
0.0  101.685394  0.0  -2.955704  -17.953919  -101.413746  52.6454  -22.43942  -25.256726  -25.67248  20.125246  30.282592  4.457881  -1.300862  4.989801  1.094247  -2.944229  25.961896  -9.555441  9.885076  4.137831  24.607357  17.293837  6.402424  -0.591239  -1.324981  2.556788  -1.755658  -3.554271  7.026925  -1.755658  -3.554271  7.026924  -5.026724  29.624523  2.585398  177.121743  67.805093  -141.437237  -42.245344  -29.947685  84.94177  24.876093  -36.968989  34.835193  2.690621  1.7198  18.417364  98.871928  26.002062  33.632439  -19.486276  35.119222  -96.452486  74.565049  8.471297  43.483135  10.266414  -0.305417  -0.797138  7.699409  -0.242538  -0.592918  
0.0  101.685394  0.0  -2.775471  -17.904488  -101.171471  52.417112  -21.95875  -25.202098  -26.868145  20.165739  29.238963  5.410918  -1.161422  5.544487  0.194921  -1.911686  26.058729  -7.501345  10.070981  4.164504  23.71366  16.575436  5.769789  -0.554147  -1.297804  2.477517  -1.647243  -3.486134  6.807231  -1.647243  -3.486134  6.807231  -4.861569  29.326816  2.728366  176.005069  67.28272  -142.641419  -42.177905  -29.59476  84.906066  24.971035  -36.631426  35.316185  2.421675  1.506063  18.269056  96.78116  27.92425  32.75674  -17.410914  34.563968  -96.930514  74.861903  8.407887  43.444583  10.060908  -0.385814  -0.794677  7.545166  -0.302543  -0.589843  
0.0  101.685394  0.0  -2.56993  -17.904599  -101.013677  52.140654  -21.595238  -25.17284  -26.928222  19.987388  29.191264  5.36964  -1.117553  5.628825  -0.45863  -1.108591  26.203816  -6.948175  9.861315  3.513094  24.247442  16.205634  5.823097  -0.498534  -1.266796  2.432096  -1.489724  -3.408311  6.679171  -1.489724  -3.408311  6.679171  -4.737389  29.074215  2.762127  175.289591  66.945189  -143.387063  -41.967412  -29.327136  84.810761  25.087879  -36.549798  35.635074  2.29402  1.305336  18.113744  96.565699  28.799413  32.646616  -17.608165  34.134895  -97.435443  75.1666  8.263269  43.310471  9.843872  -0.409417  -0.901148  7.382288  -0.32168  -0.669468  
0.0  101.685394  0.0  -2.431028  -17.810435  -100.723134  51.631088  -21.267785  -25.343009  -27.512262  20.076668  28.656103  5.955945  -0.98914  6.142775  -0.958358  -0.557172  26.17004  -6.560834  9.710376  2.936032  24.713941  15.858862  5.88034  -0.450849  -1.246088  2.381481  -1.354761  -3.35771  6.537722  -1.354761  -3.35771  6.537722  -4.787588  28.820345  2.667338  174.862494  66.723742  -143.839137  -41.724765  -29.21612  84.659648  25.219595  -36.62137  35.853861  2.071129  1.099045  17.898723  94.511916  30.869958  31.720517  -15.919183  33.612068  -98.14087  75.479194  8.063977  43.073848  9.594913  -0.395746  -1.125304  7.195456  -0.314572  -0.838005  
0.0  101.685394  0.0  -2.294202  -17.685079  -100.456021  50.924763  -21.040906  -25.558511  -27.184525  20.027933  28.92188  5.645177  -0.923504  6.231214  -1.201871  -0.22495  26.103856  -6.32461  9.584775  2.425594  25.069302  15.558485  5.971026  -0.387336  -1.223346  2.345441  -1.177147  -3.3026  6.435393  -1.177147  -3.3026  6.435393  -4.909667  28.561044  2.543576  174.50646  66.594264  -144.188172  -41.534498  -29.170837  84.623225  25.267343  -36.742192  36.08577  1.881483  0.91258  17.74858  94.254424  31.999553  31.560994  -16.202569  33.112609  -98.804197  75.741222  7.864312  42.785822  9.315025  -0.338035  -1.408436  6.985513  -0.275073  -1.051461  
